<?xml version="1.0" encoding="UTF-8"?>
<svg width="355px" height="351px" viewBox="0 0 355 351" version="1.1" xmlns="http://www.w3.org/2000/svg" xmlns:xlink="http://www.w3.org/1999/xlink">
    <title>assets/logo</title>
    <g id="assets/logo" stroke="none" stroke-width="1" fill="none" fill-rule="evenodd">
        <path d="M265.3684,116.619025 C262.339515,110.870351 176.880296,94.7234918 135.935129,103.320221 C94.9899622,111.91695 46.4432998,135.477383 20.9056872,166.945898 C-4.63192539,198.414414 -9.94373414,241.80571 20.9056872,275.44836 C51.7551086,309.09101 168.739885,279.034342 234.240973,229.511194 C299.74206,179.988047 340.749999,80.904397 322.466726,37.9946117 C304.183453,-4.91517355 213.359434,-7.39736227 165.007043,10.655163 C116.654652,28.7076882 98.2664867,90.9053482 98.2664867,110.095108 C98.2664867,129.284869 101.131461,157.22391 104.640726,198.414414 C108.149991,239.604918 140.081461,223.177104 143.000905,216.262618 C145.920349,209.348132 137.655683,189.982351 133.344095,144.892556 C129.032506,99.8027608 144.921448,50.0208517 173.396003,37.9946117 C201.870558,25.9683717 253.629708,4.7635803 291.500023,49.5056305 C329.370339,94.2476807 234.240973,171.417605 195.993969,198.414414 C157.746965,225.411223 116.654652,244.464205 85.160339,244.464205 C53.6660258,244.464205 35.719722,234.701928 35.719722,214.368913 C35.719722,194.035898 78.39714,139.12432 126.749531,127.916448 C175.101922,116.708576 230.606813,138.112915 242.172706,138.112915 C253.7386,138.112915 268.397285,122.367699 265.3684,116.619025 Z" id="Path" fill="#FF5900" fill-rule="nonzero"></path>
        <path d="M151.798401,285.539929 C168.676739,279.874763 165.054685,294.321764 181.6804,307.858082 C198.306114,321.394401 250.097972,332.194873 286.719583,305.088898 C323.341194,277.982923 326.832228,258.356693 326.832228,229.146931 C326.832228,196.680379 300.546018,189.534191 299.179379,183.835132 C298.813321,182.308623 294.774774,181.931139 301.751328,168.535082 C308.727882,155.139025 311.57452,155.139025 322.613914,163.387328 C333.653309,171.635632 367.515922,201.740012 349.171128,269.358304 C330.826334,336.976597 278.11345,351.528777 225.089593,351.528777 C172.065736,351.528777 142.831604,319.490311 138.227393,305.088898 C133.623181,290.687485 134.920063,291.205094 151.798401,285.539929 Z" id="Path-2" fill="#FF5900"></path>
    </g>
</svg>